# Blender v2.76 (sub 0) OBJ File: ''
# www.blender.org
mtllib lightmapTry.mtl
o Plane
v -3.362442 0.000000 3.362442
v 3.362442 0.000000 3.362442
v -3.362442 0.000000 -3.362442
v 3.362442 0.000000 -3.362442
vn 0.000000 1.000000 0.000000
usemtl Material.002
s off
f 1//1 2//1 4//1 3//1
o Cube_Cube.001
v -1.000000 -0.021160 1.000000
v -1.000000 1.978840 1.000000
v -1.000000 -0.021160 -1.000000
v -1.000000 1.978840 -1.000000
v 1.000000 -0.021160 1.000000
v 1.000000 1.978840 1.000000
v 1.000000 -0.021160 -1.000000
v 1.000000 1.978840 -1.000000
vn -1.000000 0.000000 0.000000
vn 0.000000 0.000000 -1.000000
vn 1.000000 0.000000 0.000000
vn 0.000000 0.000000 1.000000
vn 0.000000 -1.000000 0.000000
vn 0.000000 1.000000 0.000000
usemtl Material.001
s off
f 6//2 8//2 7//2 5//2
f 8//3 12//3 11//3 7//3
f 12//4 10//4 9//4 11//4
f 10//5 6//5 5//5 9//5
f 5//6 7//6 11//6 9//6
f 10//7 12//7 8//7 6//7
